 <svg version="1.0" xmlns="http://www.w3.org/2000/svg"  width="40.000000pt" height="40.000000pt" viewBox="0 0 40.000000 40.000000"  preserveAspectRatio="xMidYMid meet">  <g transform="translate(0.000000,40.000000) scale(0.050000,-0.050000)" fill="#00a2e8" stroke="none"> <path d="M600 670 c0 -28 -18 -133 -41 -233 -28 -127 -34 -190 -20 -204 31 -31 47 -4 127 222 l72 204 -44 31 c-62 44 -94 37 -94 -20z"/> <path d="M195 665 l-135 -7 0 -81 0 -82 80 13 80 12 0 -196 c0 -220 1 -222 70 -209 49 10 50 12 50 214 l0 205 65 19 c50 14 66 31 71 73 7 60 39 56 -281 39z"/> <path d="M493 187 c-7 -8 -13 -30 -13 -50 0 -41 88 -53 111 -16 26 43 -61 102 -98 66z"/> </g> </svg> 