 <svg  version="1.0" xmlns="http://www.w3.org/2000/svg"  width="250.000000pt" height="73.000000pt" viewBox="0 0 300.000000 83.000000"  preserveAspectRatio="xMidYMid meet">  <g transform="translate(0.000000,83.000000) scale(0.050000,-0.050000)" fill="#00a2e8" stroke="none"> <path d="M3160 1512 c0 -5 18 -102 41 -216 39 -199 199 -1072 199 -1088 0 -27 56 2 87 45 32 43 36 72 24 189 -17 170 -2 171 99 7 90 -147 95 -149 188 -72 l68 57 -95 88 c-53 48 -108 95 -123 104 -46 26 -32 69 42 128 62 50 70 66 70 151 0 127 -27 122 -155 -27 -58 -67 -106 -109 -107 -95 -2 15 -9 185 -15 377 l-13 350 -155 6 c-85 3 -155 1 -155 -4z"/> <path d="M5578 999 c-117 -536 -118 -559 -6 -535 26 5 403 893 384 904 -3 2 -54 32 -112 68 -157 95 -144 117 -266 -437z"/> <path d="M360 1375 c-390 -22 -343 5 -314 -179 29 -188 16 -177 183 -146 169 32 171 31 171 -86 0 -52 11 -236 23 -409 27 -352 14 -330 182 -302 l75 12 0 426 0 425 85 14 c247 38 225 21 243 175 l11 95 -164 -3 c-91 -2 -313 -11 -495 -22z"/> <path d="M2120 1302 c-58 -17 -59 -66 -15 -612 l25 -300 80 0 80 0 13 150 c13 156 47 260 86 260 79 0 93 -141 31 -305 -22 -58 -40 -107 -40 -110 0 -3 35 -5 78 -5 99 0 119 27 135 178 11 109 47 195 47 112 0 -120 157 -270 283 -270 321 0 272 598 -51 635 -113 13 -179 -26 -215 -124 -27 -77 -57 -94 -57 -32 0 94 -163 136 -283 73 l-52 -27 -12 102 c-7 57 -13 146 -13 198 0 102 -10 108 -120 77z m820 -547 c47 -77 51 -133 11 -186 -62 -84 -182 97 -134 202 30 67 76 62 123 -16z"/> <path d="M5255 1046 c-51 -8 -55 -16 -56 -102 0 -82 -17 -247 -26 -257 -2 -2 -53 69 -113 158 -129 190 -173 219 -153 103 8 -43 20 -202 27 -353 l12 -275 87 0 c95 0 97 3 68 130 -28 119 5 125 59 10 70 -149 84 -129 156 220 36 177 71 334 77 350 12 31 -17 34 -138 16z"/> <path d="M1027 1011 c-67 -47 -113 -184 -97 -290 59 -399 510 -438 510 -44 0 259 -241 454 -413 334z m212 -244 c49 -63 54 -172 9 -209 -49 -40 -128 59 -128 160 0 118 49 138 119 49z"/> <path d="M3944 1009 c-220 -154 -75 -609 194 -609 205 0 281 284 139 515 -72 116 -235 162 -333 94z m199 -236 c52 -72 56 -207 6 -226 -75 -29 -157 143 -110 231 29 54 63 52 104 -5z"/> <path d="M4486 1016 c-157 -76 -133 -433 39 -563 175 -134 355 -27 355 212 0 268 -199 445 -394 351z m193 -249 c59 -75 53 -227 -10 -227 -41 0 -109 100 -109 161 0 127 49 154 119 66z"/> <path d="M1605 945 c-192 -96 -110 -294 150 -364 94 -25 109 -50 40 -68 -72 -20 -121 -15 -182 17 -76 40 -78 39 -118 -32 -49 -86 -46 -94 50 -119 439 -119 695 193 287 349 -120 46 -110 84 21 77 85 -5 107 2 148 46 l49 52 -47 39 c-62 49 -301 51 -398 3z"/> <path d="M5404 376 c-38 -38 -29 -132 15 -155 124 -67 263 54 170 148 -38 37 -151 41 -185 7z"/> </g> </svg> 