 <svg version="1.0" xmlns="http://www.w3.org/2000/svg"  width="80.000000pt" height="80.000000pt" viewBox="0 0 80.000000 80.000000"  preserveAspectRatio="xMidYMid meet">  <g transform="translate(0.000000,80.000000) scale(0.050000,-0.050000)" fill="#00a2e8" stroke="none"> <path d="M1232 1437 c-4 -15 -46 -224 -92 -464 -45 -241 -88 -450 -93 -465 -11 -27 83 -85 104 -64 16 16 309 837 309 866 0 13 -20 34 -45 46 -25 12 -74 41 -110 65 -50 33 -67 37 -73 16z"/> <path d="M670 1339 c-99 -8 -263 -16 -364 -17 -215 -2 -211 1 -184 -164 31 -190 19 -179 160 -146 151 35 129 88 160 -379 27 -430 25 -423 149 -398 l79 17 2 109 c1 60 4 245 5 412 l3 303 123 21 c146 26 129 8 144 148 l13 115 -55 -3 c-30 -2 -136 -10 -235 -18z"/> <path d="M1000 360 c-76 -76 -30 -167 81 -157 96 10 132 102 61 159 -59 48 -92 48 -142 -2z"/> </g> </svg> 