  <svg  version="1.0" xmlns="http://www.w3.org/2000/svg"  width="400.000000pt" height="300.000000pt" viewBox="0 0 300.000000 254.000000"  preserveAspectRatio="xMidYMid meet">  <g transform="translate(0.000000,254.000000) scale(0.050000,-0.050000)" fill="#154360" stroke="none" > <path d="M2496 4589 c-284 -52 -392 -110 -706 -377 -89 -76 -95 -78 -236 -74 -656 16 -994 -245 -967 -748 21 -382 68 -489 158 -354 62 94 173 93 311 -3 90 -62 184 -93 286 -93 57 0 76 -10 94 -50 27 -59 13 -64 -42 -15 -39 34 -39 34 -12 -11 18 -29 21 -50 8 -60 -61 -43 -97 -184 -47 -184 11 0 14 9 7 20 -7 11 1 20 17 20 30 0 53 -41 53 -94 0 -19 -11 -26 -30 -19 -17 7 -30 2 -30 -9 0 -11 -10 -14 -23 -6 -16 10 -19 -2 -10 -38 26 -103 52 -152 92 -173 39 -21 39 -25 7 -105 -35 -88 -35 -89 87 -321 16 -30 24 -64 17 -75 -7 -11 -6 -30 1 -42 8 -12 15 -61 17 -110 2 -48 16 -99 31 -113 22 -20 24 -20 11 3 -11 19 -9 23 7 14 13 -8 18 -24 12 -34 -7 -11 0 -40 16 -64 37 -57 113 -258 143 -380 13 -53 27 -96 33 -96 27 -1 104 40 79 41 -23 2 -22 9 8 31 41 31 10 103 -33 77 -12 -8 -15 -4 -8 9 8 12 -2 30 -21 41 -20 11 -31 23 -26 27 127 95 160 115 163 97 4 -40 8 -51 23 -76 10 -15 6 -25 -10 -25 -21 -1 -21 -4 1 -18 14 -9 26 -24 25 -34 -3 -35 21 -88 39 -88 11 0 19 -8 19 -19 0 -11 -24 -11 -60 -1 -36 10 -60 10 -60 -1 0 -11 16 -19 36 -19 38 0 84 -36 84 -66 0 -11 -11 -10 -25 1 -14 11 -43 14 -64 6 -37 -14 -37 -15 6 -26 24 -6 42 -24 39 -38 -3 -15 4 -25 16 -23 29 5 -18 -137 -75 -229 -51 -83 -77 -83 -77 1 0 48 19 85 72 140 56 57 65 74 37 74 -20 0 -55 16 -77 34 -23 19 -31 22 -17 6 37 -42 30 -64 -14 -41 -26 14 -43 14 -51 1 -17 -28 -50 -25 -50 5 0 14 25 41 55 60 l55 34 -55 -4 c-30 -2 -55 -12 -55 -21 0 -10 -35 -58 -78 -106 -57 -65 -80 -111 -87 -173 -13 -123 -24 -119 293 -117 86 1 152 47 152 107 0 83 277 306 332 266 31 -23 27 -27 -39 -39 -51 -10 -69 -22 -59 -38 33 -53 24 -90 -29 -112 -57 -24 -121 -122 -80 -122 63 0 -33 -40 -110 -46 -99 -7 -5 -43 100 -38 93 4 123 -2 132 -25 8 -22 42 -31 117 -31 665 -6 772 27 735 227 -18 96 -17 100 62 194 44 53 126 193 181 310 87 183 123 235 247 357 163 159 253 314 233 399 -2 10 12 11 32 3 48 -20 275 -26 364 -9 52 9 30 13 -82 14 -84 1 -164 8 -178 16 -15 10 -19 7 -10 -8 20 -32 -32 -29 -79 5 -34 25 -28 27 61 21 69 -4 90 -1 69 14 -21 14 -9 16 41 8 l70 -11 -70 29 c-82 33 -123 39 -80 11 26 -17 25 -19 -5 -20 -47 0 -44 45 5 76 34 21 43 20 52 -4 7 -17 25 -24 43 -17 21 8 27 4 17 -12 -9 -15 0 -23 26 -23 28 0 37 -9 29 -30 -14 -38 321 -45 345 -7 10 16 -12 20 -79 12 -52 -5 -99 -2 -104 7 -6 10 -1 18 12 18 15 0 19 18 11 50 -7 29 -4 50 8 50 17 0 27 -25 24 -61 -1 -7 26 -8 59 -3 48 7 58 17 50 48 -7 27 -3 33 14 20 12 -11 41 -13 63 -5 60 22 133 1 79 -23 -35 -15 -34 -16 6 -8 64 12 56 -18 -20 -71 -36 -25 -71 -54 -79 -66 -8 -11 -37 -23 -65 -25 -29 -2 -64 -16 -78 -30 -15 -15 -73 -40 -128 -55 -77 -21 -99 -35 -92 -59 9 -29 8 -29 -16 0 -15 17 -40 37 -57 43 -17 6 8 17 55 25 126 22 103 40 -50 39 -139 -1 -245 -32 -245 -70 0 -12 8 -16 19 -10 10 6 23 3 30 -7 6 -11 -4 -24 -24 -30 -19 -6 31 -7 111 -2 116 6 148 2 157 -22 9 -22 18 -24 39 -6 27 22 30 20 36 -24 1 -12 25 -34 52 -49 28 -15 44 -28 36 -28 -8 -1 9 -24 37 -52 28 -28 46 -63 40 -79 -6 -15 0 -32 13 -37 13 -5 5 -11 -18 -11 -35 -2 -41 7 -32 51 8 42 3 51 -21 42 -48 -19 -114 38 -75 64 26 18 25 20 -5 21 -19 0 -35 14 -35 30 0 17 -9 30 -20 30 -25 0 -26 6 15 -100 58 -147 89 -181 221 -242 70 -32 150 -83 178 -113 42 -45 47 -47 29 -11 -13 24 -39 53 -58 65 -53 30 3 25 64 -7 30 -15 44 -31 33 -35 -14 -5 -12 -26 7 -63 16 -30 21 -50 11 -44 -24 15 43 -195 99 -309 27 -56 63 -49 41 9 -36 94 -18 103 23 11 37 -86 67 -120 103 -121 9 0 10 20 3 44 -13 42 -12 42 20 10 19 -19 52 -34 73 -34 37 0 36 3 -9 46 -75 69 -67 334 9 334 27 0 40 -37 17 -50 -14 -10 -14 -22 2 -42 18 -21 18 -28 0 -28 -13 0 -18 -9 -11 -20 20 -33 42 -23 66 29 18 41 17 47 -7 38 -16 -6 -29 -1 -29 11 0 12 9 22 20 22 11 0 20 10 20 21 0 12 -10 15 -21 8 -15 -9 -18 30 -8 128 18 177 4 230 -66 260 l-55 24 55 -42 c65 -50 83 -244 25 -266 -25 -10 -27 -5 -10 26 23 44 27 122 5 91 -8 -11 -28 -23 -45 -26 -24 -6 -25 -2 -5 18 36 37 -26 98 -100 98 -48 0 -57 6 -45 35 8 19 16 46 18 59 2 14 12 32 21 40 10 9 11 5 3 -9 -8 -14 -5 -25 7 -25 25 0 25 53 1 110 -16 38 -17 37 -19 -6 0 -26 -10 -41 -21 -34 -18 11 -31 -49 -21 -98 2 -10 -10 -8 -26 5 -23 20 -31 19 -39 -1 -5 -14 -8 7 -8 48 1 40 8 70 15 65 24 -15 6 361 -21 435 -24 65 -34 73 -77 63 -34 -9 -45 -6 -35 10 9 14 3 18 -15 11 -21 -8 -28 0 -25 25 3 21 23 39 44 42 35 4 35 3 -2 -14 -27 -12 -30 -19 -10 -19 17 -1 44 7 60 18 17 11 22 20 11 20 -10 0 -1 14 20 31 37 30 37 30 -7 9 -25 -13 -57 -18 -70 -13 -18 7 -18 10 1 11 14 1 25 16 25 32 0 17 11 30 25 30 18 1 17 5 -3 18 -21 14 -18 21 17 32 24 7 52 35 62 62 10 26 28 48 39 48 12 0 19 16 16 35 -6 32 2 36 74 43 17 1 30 21 30 44 0 29 9 39 30 31 17 -7 30 -7 30 -1 0 6 -13 24 -30 41 -17 16 -30 65 -30 110 0 48 -8 74 -20 67 -12 -8 -20 33 -20 107 0 66 8 123 17 126 10 4 10 25 2 47 -15 36 -16 35 -18 -10 -2 -48 -3 -49 -32 -11 -16 21 -28 57 -28 80 2 39 2 39 17 2 11 -27 19 -31 30 -14 12 19 22 20 44 1 24 -19 27 -17 16 10 -7 19 -26 30 -41 24 -15 -6 -27 -2 -27 9 0 10 -13 19 -30 19 -16 0 -30 13 -30 29 0 32 -102 136 -117 120 -6 -5 11 -32 37 -59 26 -28 39 -50 29 -50 -9 0 -6 -11 7 -24 13 -13 24 -42 24 -65 0 -47 -159 178 -162 229 -1 23 -4 24 -12 3 -7 -17 -23 -5 -49 36 -20 35 -46 58 -56 52 -10 -7 -24 -2 -31 9 -7 11 -20 16 -29 10 -9 -5 -23 6 -30 25 -10 26 -17 28 -29 8 -22 -36 -169 91 -153 131 6 15 2 23 -8 17 -10 -7 -24 -2 -32 10 -7 12 -28 16 -45 9 -18 -7 -26 -6 -18 2 15 16 -41 88 -69 88 -10 0 -42 25 -72 56 -30 31 -43 41 -28 21 15 -19 29 -61 31 -94 l4 -60 -56 40 c-31 22 -56 30 -56 17 0 -12 -9 -17 -19 -11 -11 7 -15 25 -9 40 11 27 -20 57 -67 64 -14 2 -19 -7 -12 -20 7 -13 -17 4 -53 37 -36 33 -60 49 -52 35 19 -33 -4 -32 -37 2 -15 14 -61 24 -102 22 -70 -3 -73 -1 -37 25 36 27 35 28 -15 19 -29 -5 -77 3 -107 19 -68 35 -81 35 -52 0 18 -21 13 -30 -23 -39 -25 -7 -48 -3 -52 8 -3 10 -13 15 -22 10 -9 -6 -32 8 -51 29 -20 22 -46 40 -58 40 -12 0 -9 -9 8 -20 26 -16 24 -23 -10 -49 -32 -24 -35 -34 -13 -48 21 -14 21 -20 3 -26 -13 -5 17 -8 66 -8 50 0 87 6 83 13 -5 8 11 9 35 3 41 -11 39 -14 -21 -34 -36 -12 -59 -29 -51 -36 8 -8 -12 -15 -44 -15 -109 -1 -228 -169 -228 -324 0 -49 -56 -93 -104 -80 -7 2 -19 -15 -26 -37 -7 -22 -23 -34 -35 -26 -14 9 -17 1 -9 -21 8 -20 6 -29 -6 -22 -11 7 -20 3 -20 -8 0 -11 -11 -16 -25 -11 -28 11 -35 -104 -8 -146 10 -16 4 -25 -16 -25 -33 0 -42 -31 -14 -48 24 -15 17 -90 -15 -168 -29 -69 -12 -118 20 -59 11 19 32 35 48 35 26 0 25 80 -2 124 -6 9 5 16 23 16 18 0 56 18 84 40 28 22 62 40 77 40 15 0 40 25 55 55 42 81 113 142 113 98 0 -91 -51 -190 -116 -225 -37 -20 -85 -58 -106 -85 -29 -37 -38 -40 -38 -16 0 18 -9 33 -20 33 -11 0 -18 -7 -16 -15 9 -34 -28 -102 -50 -94 -23 9 -78 -88 -83 -145 -1 -13 -7 -29 -14 -36 -7 -6 -8 -42 -3 -79 9 -73 -26 -114 -58 -69 -15 21 -17 19 -8 -9 7 -20 12 -58 12 -85 0 -28 12 -48 28 -48 46 0 51 -51 9 -112 l-39 -58 13 73 c8 44 4 78 -9 86 -12 7 -23 2 -23 -13 -1 -14 -10 -8 -19 14 -28 64 -22 158 11 206 24 33 35 129 47 393 16 346 76 551 161 551 30 0 166 130 183 176 25 64 -13 137 -53 103 -16 -13 -25 -30 -20 -37 5 -8 -9 -25 -30 -38 -29 -18 -36 -18 -32 1 4 14 3 18 -2 11 -4 -8 -9 -22 -9 -30 -2 -14 -114 -106 -129 -106 -3 0 1 16 10 35 83 184 96 205 129 205 20 0 31 9 24 20 -7 11 4 26 24 34 65 23 130 97 86 97 -20 0 -33 -9 -27 -20 5 -12 -3 -5 -19 14 -31 38 -94 48 -94 14 0 -12 8 -16 19 -10 10 6 23 4 29 -6 6 -10 -9 -17 -33 -15 -31 1 -44 -9 -42 -33 1 -19 -6 -30 -15 -24 -10 6 -18 2 -18 -10 0 -13 -24 -7 -55 13 -41 26 -49 28 -33 6 26 -36 26 -147 -1 -156 -11 -4 -23 5 -27 20 -5 17 0 16 14 -4 19 -27 21 -27 21 0 0 33 -66 120 -90 120 -8 0 -2 -16 15 -35 26 -32 29 -63 19 -195 -3 -36 -7 -35 -54 15 -28 30 -62 55 -75 54 -15 0 -12 -9 8 -25 28 -22 78 -98 78 -120 0 -5 -33 21 -74 58 -99 91 -132 87 -45 -5 66 -70 50 -75 -29 -9 -22 18 -32 21 -24 7 8 -14 19 -50 23 -80 8 -46 6 -49 -12 -20 -36 60 -49 39 -50 -86 -1 -89 5 -118 24 -111 28 11 16 -34 -26 -97 -25 -37 -27 -36 -27 25 0 35 -9 64 -20 64 -13 0 -15 -22 -7 -55 13 -51 11 -53 -21 -26 -32 26 -35 25 -29 -10 4 -21 15 -45 24 -52 35 -25 -9 -100 -54 -93 -42 6 -99 -45 -149 -134 -22 -39 -23 -39 -23 3 -1 24 35 82 79 129 44 48 80 101 80 118 0 18 9 41 19 51 12 12 9 60 -8 129 -27 111 -45 71 -34 -72 4 -49 -45 -98 -77 -78 -13 8 -17 39 -10 77 l13 63 -72 -80 -72 -80 51 118 c28 65 56 153 63 195 6 42 20 71 30 65 9 -6 23 4 29 21 7 17 24 31 39 31 20 0 25 21 18 74 -5 40 -4 67 4 60 8 -8 15 -34 17 -59 2 -25 12 -40 22 -35 10 6 16 26 13 46 -3 23 3 31 18 22 15 -9 18 -5 9 9 -8 13 -23 18 -33 12 -18 -11 -28 19 -20 59 8 45 -20 82 -40 51 -14 -21 -18 -22 -19 -3 0 52 40 103 72 90 23 -8 25 -16 8 -26 -18 -11 -14 -30 13 -71 32 -50 38 -52 44 -19 4 21 29 55 56 76 26 20 62 64 79 97 19 38 41 56 59 49 17 -6 29 1 29 19 0 40 67 103 98 93 20 -7 20 0 -1 33 -29 47 -125 53 -107 7 5 -15 11 -33 11 -41 1 -7 10 5 19 27 16 38 17 38 19 -5 0 -27 -11 -45 -29 -45 -16 0 -30 14 -30 30 0 17 -10 30 -21 30 -13 0 -17 -19 -10 -45 12 -43 11 -43 -16 3 -33 57 -65 3 -42 -70 11 -31 9 -33 -9 -8 -18 25 -21 26 -22 1 0 -24 -4 -24 -25 1 -53 63 -104 93 -79 46 17 -33 16 -41 -6 -41 -16 0 -24 6 -19 14 5 8 -7 27 -26 42 -32 24 -32 24 -8 -8 16 -19 22 -35 15 -35 -7 0 -4 -17 7 -37 33 -63 2 -63 -103 -1 -56 33 -105 56 -110 51 -5 -5 19 -25 53 -45 33 -20 61 -48 61 -62 0 -34 -11 -33 -73 8 -52 34 -52 34 -25 -9 36 -59 10 -78 -51 -37 -39 25 -51 27 -51 6 0 -18 -21 -23 -70 -18 -90 11 -79 -21 39 -114 92 -73 133 -162 129 -284 -2 -64 -3 -63 -20 21 -9 48 -24 93 -33 100 -8 6 -28 36 -44 68 -34 66 -94 106 -94 63 0 -16 9 -23 21 -16 13 7 12 2 -1 -13 -19 -21 -32 -20 -67 5 -23 16 -34 33 -23 37 10 4 -5 24 -34 46 l-53 38 38 -43 c23 -27 29 -44 14 -44 -13 0 -19 -8 -13 -19 6 -10 -30 4 -80 31 -50 26 -86 40 -80 30 6 -10 4 -22 -4 -27 -8 -5 -5 -6 7 -3 12 2 48 -13 80 -34 32 -21 47 -38 34 -38 -13 0 -30 10 -37 21 -7 12 -24 18 -37 12 -13 -5 -60 13 -103 39 -86 52 -119 61 -98 26 10 -16 3 -16 -27 0 -64 34 -94 28 -61 -11 29 -36 32 -36 -103 5 -23 8 -40 3 -40 -10 0 -12 -25 -23 -55 -23 -54 -2 -54 -2 -10 -23 50 -24 57 -46 22 -68 -14 -9 -18 -5 -9 9 9 14 0 23 -25 23 -22 0 -55 6 -75 13 -24 10 -30 6 -20 -10 14 -23 -13 -41 -74 -50 -46 -7 -94 -66 -94 -117 -1 -30 -6 -37 -16 -21 -13 19 -25 18 -55 -6 -22 -18 -25 -26 -9 -19 26 11 26 9 -1 -14 -17 -14 -28 -44 -25 -66 3 -22 0 -29 -6 -15 -6 14 -20 20 -31 13 -11 -7 -10 -23 5 -40 13 -16 18 -35 11 -42 -7 -7 -13 -2 -13 11 0 13 -12 23 -27 23 -22 0 -28 -52 -31 -240 -3 -233 -12 -300 -40 -300 -21 0 -65 313 -51 367 7 27 3 55 -9 62 -66 40 28 333 147 456 193 201 789 292 1061 162 l60 -29 -47 41 c-26 23 -61 41 -77 41 -42 0 -28 20 76 116 85 78 135 108 110 67 -6 -10 11 -13 39 -8 27 5 49 22 49 37 0 16 14 28 31 28 17 0 26 8 20 18 -6 10 34 30 89 44 103 26 126 49 65 64 -19 5 -11 6 19 2 41 -5 51 1 43 23 -7 18 2 30 26 32 49 4 71 9 107 22 73 29 188 35 249 15 43 -14 94 -15 147 -3 63 14 92 11 125 -12 34 -24 47 -25 59 -6 11 19 25 20 58 2 23 -13 52 -17 63 -10 12 7 42 -2 69 -19 26 -17 62 -26 79 -20 20 8 31 1 31 -20 0 -19 17 -32 43 -32 43 0 43 1 5 43 l-38 42 64 -32 c35 -18 69 -42 76 -53 7 -11 22 -20 34 -20 13 0 12 11 -4 30 -20 24 -20 30 3 31 18 0 16 7 -8 21 -19 11 -45 14 -56 7 -11 -7 -32 -4 -45 7 -32 26 -137 25 -121 -2 8 -12 3 -14 -10 -6 -13 8 -18 25 -10 37 8 13 2 18 -15 11 -15 -5 -55 2 -88 17 -59 26 -58 26 30 14 50 -7 100 -20 112 -30 12 -9 27 -11 33 -5 31 31 445 -100 424 -134 -10 -16 34 -28 77 -20 10 2 11 -6 4 -18 -7 -11 10 -29 38 -39 27 -11 60 -38 72 -61 12 -22 30 -36 40 -30 9 6 31 -9 49 -34 17 -25 31 -36 31 -25 0 10 23 -7 50 -39 28 -32 50 -52 50 -45 0 7 18 -5 40 -27 51 -51 97 -54 58 -4 -15 20 -10 16 12 -7 22 -24 55 -72 74 -106 19 -35 44 -63 56 -63 13 0 16 11 7 25 -22 35 -26 75 -8 75 24 0 62 -52 49 -66 -7 -6 13 -46 44 -88 l56 -76 -54 48 c-30 27 -54 39 -54 27 0 -29 57 -85 87 -85 13 0 35 -19 49 -41 24 -39 23 -40 -17 -19 -39 21 -40 20 -20 -19 13 -23 31 -37 41 -31 10 6 28 -7 40 -29 12 -23 31 -41 43 -41 14 0 12 12 -5 32 -42 51 -41 91 1 68 20 -10 39 -15 43 -11 5 4 9 -19 10 -51 1 -32 -5 -58 -14 -58 -9 0 -12 -13 -5 -30 6 -16 20 -30 30 -30 11 0 14 11 7 25 -7 14 -1 11 14 -6 14 -17 48 -30 76 -30 39 1 49 -9 50 -49 0 -31 10 -48 27 -44 44 9 145 -66 302 -225 83 -83 161 -151 175 -151 15 0 26 -17 26 -38 0 -20 14 -48 30 -62 36 -30 40 -68 5 -48 -14 8 -9 -3 9 -25 66 -75 92 -192 89 -403 -2 -112 5 -204 14 -204 10 0 12 -23 5 -51 -8 -30 -1 -73 16 -105 16 -30 34 -77 40 -105 6 -29 34 -64 61 -79 35 -18 51 -43 51 -81 0 -30 14 -65 30 -79 17 -14 26 -30 20 -36 -5 -6 4 -32 20 -57 17 -26 23 -47 13 -47 -24 0 -23 -101 2 -148 14 -28 12 -42 -10 -54 -19 -11 -26 -36 -20 -67 6 -31 0 -51 -13 -51 -15 0 -11 -18 9 -49 18 -27 26 -60 18 -73 -9 -15 -7 -19 6 -11 27 17 37 -18 35 -122 -3 -102 -13 -114 -82 -96 -40 10 -48 19 -31 36 34 34 28 51 -22 61 -45 8 -45 9 -1 11 24 2 58 -12 77 -31 31 -31 33 -31 26 5 -5 24 -30 43 -67 51 -48 9 -53 15 -26 27 19 8 45 8 58 0 15 -10 19 -7 10 8 -8 13 -39 23 -68 23 -40 1 -46 5 -26 18 16 10 40 14 55 8 56 -22 24 17 -38 46 -62 29 -63 30 -8 18 37 -8 54 -4 49 11 -4 12 -13 19 -20 15 -20 -10 -116 88 -116 119 0 15 7 23 15 18 9 -5 38 4 65 20 50 29 50 29 -19 18 -38 -6 -92 -32 -119 -56 l-50 -45 30 48 c17 27 66 61 109 76 111 38 123 58 67 105 l-48 40 48 0 c27 1 43 7 36 14 -8 7 -40 12 -71 11 -48 -1 -57 6 -48 37 11 44 37 51 51 14 7 -19 15 -19 34 -2 19 18 6 41 -58 105 -45 45 -82 96 -82 112 0 17 -8 30 -17 30 -22 0 -47 -117 -32 -142 6 -10 -2 -18 -19 -18 -20 0 -26 11 -18 32 11 29 5 28 -46 -3 l-58 -37 48 54 c47 52 35 79 -13 31 -18 -18 -31 -17 -54 2 -25 21 -33 20 -44 -9 -11 -31 -16 -29 -39 13 -41 72 -34 81 36 45 44 -23 67 -26 72 -11 4 13 25 23 46 23 21 0 38 9 38 20 0 11 -30 20 -68 20 -77 0 -121 42 -106 100 6 25 0 40 -17 40 -33 0 -55 33 -39 59 15 26 107 -10 165 -64 l45 -42 0 45 c0 24 9 39 20 32 33 -20 23 3 -14 33 -19 15 -28 17 -20 3 8 -13 6 -28 -4 -35 -10 -6 -16 5 -13 24 3 19 -2 50 -11 68 -13 25 -9 32 17 28 19 -3 35 -15 35 -27 0 -12 13 -34 28 -48 23 -21 25 -21 13 0 -21 38 -28 224 -8 236 24 14 21 103 -3 118 -11 7 -20 21 -20 32 0 11 7 16 16 10 14 -8 17 138 4 168 -3 6 -6 23 -7 38 -3 32 -53 56 -53 25 0 -11 11 -24 25 -30 18 -7 18 -10 -2 -11 -22 -2 -23 -8 -5 -30 18 -21 16 -30 -6 -38 -28 -11 -92 62 -92 104 0 10 -11 24 -25 30 -14 6 -5 7 20 0 54 -13 55 -5 12 78 -39 76 -83 112 -135 113 -21 1 -33 7 -26 13 19 20 -39 68 -81 68 -43 0 -97 -166 -73 -227 12 -33 15 -33 54 1 22 20 34 25 26 11 -8 -14 -6 -25 4 -25 37 0 62 -154 32 -197 -22 -31 -23 -42 -3 -50 15 -6 11 -10 -10 -11 -19 -1 -35 11 -35 26 0 33 -64 29 -76 -5 -4 -13 -16 -18 -26 -12 -10 6 -24 -5 -32 -25 -7 -20 -22 -42 -32 -49 -11 -7 -21 -43 -23 -81 -3 -38 -25 -96 -50 -130 -47 -64 -9 -206 46 -172 11 7 13 2 5 -11 -16 -26 28 -143 53 -143 8 0 15 -13 15 -28 0 -16 11 -34 25 -41 14 -6 5 -8 -20 -3 -25 5 -40 0 -34 -10 6 -10 27 -18 45 -18 29 -1 29 -3 5 -19 -26 -16 -25 -21 3 -31 18 -7 38 -25 43 -41 7 -17 1 -23 -18 -16 -126 49 71 -125 212 -188 68 -29 99 -57 119 -107 15 -38 35 -73 44 -79 9 -7 2 -41 -16 -77 -31 -62 -30 -67 11 -111 33 -35 40 -59 29 -103 -14 -54 -68 -130 -68 -95 0 9 -14 -4 -31 -29 -18 -25 -28 -56 -22 -70 6 -14 11 -10 11 10 3 59 70 80 109 35 38 -45 45 -79 9 -43 -13 13 -42 23 -65 23 -40 -2 -40 -2 2 -19 58 -23 73 -51 27 -51 -20 0 -33 7 -27 15 5 9 -1 16 -14 16 -13 0 -18 -14 -11 -32 7 -17 12 -36 12 -41 0 -5 10 -3 22 4 15 10 15 1 -1 -29 -12 -23 -15 -43 -7 -43 9 -1 -2 -9 -24 -18 -24 -9 -46 -7 -55 7 -9 14 -15 12 -15 -8 -1 -27 -3 -27 -21 0 -16 24 -20 20 -15 -20 5 -46 15 -50 106 -52 55 -1 109 -5 120 -9 38 -13 170 23 170 47 1 13 18 47 40 74 22 28 39 57 40 65 0 25 -56 17 -67 -10 -8 -20 -10 -20 -11 0 -1 14 -22 26 -47 27 -34 1 -27 7 25 23 48 15 59 24 35 30 -19 4 -35 16 -35 26 0 24 54 25 68 2 6 -10 38 -23 72 -30 33 -7 60 -22 60 -34 0 -13 -17 -16 -40 -9 -23 7 -40 4 -40 -9 0 -11 14 -21 30 -21 34 0 41 -51 10 -70 -12 -7 -16 -20 -10 -30 5 -9 -10 -13 -35 -8 -25 5 -34 3 -20 -3 35 -17 32 -56 -4 -42 -15 6 -39 -3 -53 -19 -34 -42 136 -22 179 20 37 37 45 526 8 549 -23 14 -5 335 22 378 19 32 -112 307 -174 363 -76 70 -111 202 -121 462 -14 337 -113 606 -275 747 -123 107 -301 233 -331 233 -13 0 -35 20 -49 45 -43 80 -251 343 -324 410 -73 66 -107 84 -81 42 9 -15 5 -18 -9 -9 -13 8 -19 22 -13 32 15 24 -231 241 -268 235 -17 -3 -31 6 -32 19 -1 55 -334 259 -546 336 -287 103 -812 139 -1148 79z m1013 -575 c6 -8 5 -10 -2 -4 -7 5 -24 1 -36 -9 -13 -11 -45 -14 -71 -7 -44 12 -45 14 -9 27 44 17 103 13 118 -7z m1141 -265 c21 -12 42 -35 47 -50 6 -21 -2 -19 -31 6 -21 19 -45 29 -52 22 -7 -7 -19 4 -27 25 -7 21 -23 52 -35 69 -12 17 -3 13 19 -10 23 -23 59 -51 79 -62z m-3159 32 c-7 -10 6 -28 27 -40 49 -26 68 -27 52 -1 -7 11 -2 20 10 20 12 0 17 9 10 20 -7 11 -3 20 8 20 34 0 124 -101 110 -123 -8 -14 2 -13 28 1 52 27 111 29 94 2 -7 -11 1 -20 18 -20 16 0 39 16 50 35 20 33 21 33 21 0 1 -19 -7 -35 -17 -35 -31 0 -12 -58 29 -91 26 -21 31 -35 15 -42 -13 -5 -19 -22 -14 -36 6 -15 0 -34 -14 -42 -15 -10 -19 -7 -10 8 22 36 0 27 -30 -12 -15 -19 -19 -28 -9 -20 24 20 71 -22 71 -65 0 -47 -51 -143 -67 -126 -7 7 -31 -4 -54 -25 -27 -25 -46 -30 -55 -16 -8 12 -36 28 -64 36 -33 9 -41 7 -23 -5 21 -15 20 -21 -5 -31 -38 -14 -96 5 -82 27 5 8 -12 47 -39 86 -26 39 -42 76 -36 82 6 7 0 12 -15 12 -15 0 -21 6 -14 12 15 16 -35 68 -65 68 -11 0 -21 18 -21 40 0 53 7 71 25 65 25 -8 17 16 -15 48 -16 16 -30 22 -30 13 0 -9 -9 -3 -18 12 -27 42 -4 82 48 82 25 0 51 14 57 30 7 17 17 30 24 30 6 0 6 -9 0 -19z m2000 -22 c7 -11 30 -15 51 -8 55 17 47 -7 -24 -73 -41 -38 -52 -58 -32 -58 17 0 46 -6 65 -13 28 -11 31 -5 19 34 -14 44 -13 45 17 14 63 -63 42 -93 -50 -72 -46 10 -96 14 -110 8 -15 -5 -27 -4 -27 3 0 27 88 106 117 106 16 0 24 6 17 12 -7 7 -28 6 -48 -3 -20 -8 -45 -17 -56 -18 -11 -2 -18 -14 -15 -28 4 -16 -4 -20 -18 -11 -13 8 -18 6 -11 -6 7 -11 -2 -40 -19 -65 -25 -35 -36 -39 -49 -18 -11 17 2 46 37 82 29 30 46 55 39 55 -17 0 51 76 70 78 7 1 19 -7 27 -19z m229 -41 c0 -12 13 -17 28 -12 15 6 34 5 42 -2 13 -14 24 -17 79 -21 18 -2 25 -15 18 -34 -8 -21 2 -35 32 -43 33 -9 38 -16 18 -29 -18 -11 -9 -15 28 -12 58 4 72 25 30 42 -17 7 -15 10 6 11 71 4 279 -142 279 -196 0 -8 20 -14 45 -12 59 5 98 -10 84 -32 -6 -10 2 -18 18 -18 16 0 34 -14 40 -30 7 -17 19 -29 27 -28 54 9 86 -6 86 -41 0 -26 10 -36 28 -29 15 6 34 1 41 -11 7 -11 4 -21 -7 -21 -38 0 -1 -54 54 -79 46 -21 49 -28 23 -48 -32 -24 -29 -102 3 -82 10 7 13 22 5 35 -7 13 -6 17 4 8 26 -24 28 -74 2 -74 -13 0 -11 -8 6 -19 16 -10 35 -14 43 -10 8 5 10 -8 5 -28 -13 -46 42 -103 99 -103 37 -1 39 -4 14 -22 -23 -16 -24 -24 -5 -31 36 -15 31 -67 -6 -67 -17 0 -27 -8 -21 -17 6 -9 -12 -28 -40 -40 -30 -14 -45 -15 -38 -3 7 11 3 20 -8 20 -27 0 -67 -76 -53 -99 7 -10 1 -25 -12 -33 -15 -9 -18 -5 -7 12 11 17 8 21 -7 12 -13 -8 -23 -25 -23 -39 0 -29 -71 -93 -103 -93 -12 0 -17 -18 -11 -40 10 -39 -52 -95 -91 -84 -8 2 -15 -3 -15 -11 0 -8 -22 -16 -49 -18 -37 -2 -45 5 -36 30 10 29 7 29 -28 -2 -61 -54 -116 -4 -64 58 24 30 13 52 -30 59 -17 2 -23 -15 -17 -50 5 -35 -5 -65 -28 -83 -31 -26 -34 -25 -23 4 7 20 -4 48 -29 70 -41 37 -42 36 -17 -10 23 -43 21 -46 -20 -33 -25 8 -39 6 -33 -4 6 -10 3 -31 -7 -47 -14 -22 -18 -15 -19 26 0 30 -9 55 -20 55 -11 0 -20 -13 -20 -29 0 -43 -100 -147 -113 -116 -13 30 -67 33 -67 4 0 -12 11 -15 25 -6 18 11 18 6 -1 -18 -15 -18 -38 -28 -51 -23 -13 5 -44 -10 -69 -32 -46 -44 -59 -100 -23 -100 13 0 11 -12 -5 -29 -62 -69 -73 -87 -60 -100 7 -7 0 -22 -17 -32 -40 -26 -76 -23 -39 3 27 19 27 20 0 13 -16 -5 -30 -30 -31 -57 -1 -26 -10 -52 -20 -56 -10 -4 -29 -22 -41 -38 -12 -17 -30 -25 -41 -18 -10 6 -32 2 -48 -9 -24 -17 -24 -19 4 -10 29 9 30 4 3 -49 -16 -32 -35 -58 -42 -58 -8 -1 -36 -19 -64 -42 -27 -23 -39 -36 -25 -29 16 9 20 3 13 -18 -7 -17 -21 -31 -32 -31 -11 0 -14 -16 -7 -35 10 -27 8 -30 -11 -11 -17 17 -18 32 -4 50 12 14 15 41 9 59 -9 23 -22 4 -44 -63 -28 -86 -28 -95 0 -86 22 6 20 2 -4 -14 -19 -12 -46 -16 -60 -8 -14 8 -18 7 -10 -2 8 -9 5 -28 -8 -43 -17 -21 -12 -27 26 -29 32 -2 36 -5 13 -12 -37 -9 -66 -74 -47 -105 7 -10 -1 -26 -17 -35 -15 -9 -31 -38 -35 -66 -5 -35 -21 -52 -54 -57 -29 -4 -42 2 -35 14 7 12 29 17 48 12 19 -6 12 1 -14 15 -39 20 -51 20 -57 1 -5 -14 -16 -25 -26 -25 -10 0 -12 15 -5 33 10 25 6 29 -16 16 -24 -14 -24 -12 -1 17 15 18 36 28 46 22 10 -6 17 -4 15 6 -7 41 4 67 23 55 43 -26 77 30 58 96 -10 34 -14 67 -9 72 6 5 10 -1 10 -13 0 -13 14 -18 30 -11 17 6 30 28 30 49 0 21 9 38 20 38 11 0 19 7 18 15 -2 8 -1 20 1 25 20 52 18 101 -4 90 -14 -7 -9 0 10 15 19 16 29 35 21 42 -7 7 -1 13 13 13 18 0 22 18 15 57 -15 74 5 157 28 120 13 -19 17 -20 18 -3 0 14 14 20 30 13 20 -8 30 1 30 28 0 22 13 51 30 65 32 26 23 60 -16 60 -14 0 -12 -8 6 -20 27 -18 14 -29 -26 -22 -10 2 -10 -8 -2 -23 8 -14 7 -18 -4 -8 -31 28 -21 61 35 116 30 29 50 58 44 63 -15 15 58 93 77 82 9 -6 17 6 19 26 8 111 6 166 -7 166 -8 0 -25 20 -38 43 -30 56 26 107 83 76 55 -29 99 -23 99 13 0 20 11 28 30 21 18 -7 30 0 30 18 0 16 -16 30 -35 31 -23 1 -26 5 -9 12 21 8 19 19 -8 48 -19 21 -24 38 -12 38 13 0 18 14 11 30 -15 41 22 38 56 -4 23 -29 23 -31 -3 -18 -16 9 -3 -7 30 -35 57 -49 58 -52 16 -52 -31 -1 -41 -10 -33 -30 10 -26 14 -26 40 0 17 16 39 29 50 29 11 0 14 18 7 41 -7 22 -5 52 6 65 13 16 6 37 -21 64 l-40 40 24 -50 23 -50 -41 48 c-27 31 -37 62 -29 87 7 24 4 35 -8 28 -11 -7 -25 7 -31 31 -14 54 3 75 28 35 16 -24 18 -24 19 5 0 18 -9 39 -20 46 -11 7 -20 26 -20 42 0 17 9 25 20 18 11 -7 21 -5 22 4 0 9 4 31 7 49 4 18 -14 44 -41 58 -48 26 -70 73 -23 49 14 -7 8 1 -12 17 -29 24 -34 44 -22 87 8 31 14 63 12 71 -2 8 6 15 17 15 11 0 20 18 20 40 0 22 10 40 22 40 12 0 17 -14 10 -32 -7 -17 2 -51 18 -75 31 -42 30 21 -1 122 -4 14 -1 25 8 25 47 0 -9 247 -65 285 -14 9 -9 15 13 15 19 0 35 -10 35 -22z m-2525 -60 c-19 -11 -82 -25 -140 -32 -58 -6 -116 -20 -130 -31 -15 -12 -25 -12 -25 -1 0 36 130 83 230 84 77 1 92 -4 65 -20z m25 -37 c0 -40 -110 -104 -165 -96 -30 4 -55 1 -55 -8 0 -10 34 -17 75 -17 75 0 197 61 172 87 -8 7 -3 13 10 13 28 0 31 -53 3 -70 -12 -7 -16 -20 -11 -28 9 -15 -62 -26 -169 -26 -27 0 -61 -8 -74 -19 -18 -15 -23 -5 -20 36 4 45 15 58 54 60 74 4 164 44 150 67 -7 11 -3 20 9 20 11 0 21 -8 21 -19z m2348 -82 c11 -10 9 -29 -5 -45 -12 -15 -17 -34 -9 -41 7 -7 1 -13 -14 -13 -15 0 -21 -6 -14 -13 25 -25 -54 -64 -90 -45 -18 10 -38 11 -44 1 -23 -37 -47 -183 -30 -183 10 0 18 25 18 55 1 44 5 49 21 25 17 -25 20 -24 15 8 -3 21 5 42 18 46 34 12 17 -58 -37 -154 -31 -56 -49 -72 -60 -55 -13 20 -16 20 -17 0 0 -14 -12 -25 -27 -25 -47 0 -152 -62 -174 -101 -18 -34 -15 -37 26 -21 33 13 58 9 86 -12 21 -17 26 -27 10 -22 -16 5 -44 -7 -62 -25 -22 -22 -54 -31 -92 -25 -44 7 -50 4 -27 -12 26 -18 25 -21 -6 -22 -20 0 -31 -9 -24 -20 7 -11 -4 -21 -24 -22 -21 0 -26 -5 -11 -11 39 -16 29 -47 -10 -33 -31 12 -32 9 -8 -20 25 -30 22 -34 -20 -36 -26 0 -35 -6 -21 -12 22 -8 21 -16 -2 -43 -31 -37 -100 -203 -83 -203 5 0 45 23 89 50 44 28 106 50 140 50 68 0 81 30 20 46 -22 6 -60 -6 -88 -28 -63 -50 -110 -51 -65 -2 117 130 332 153 457 48 46 -39 60 -44 51 -19 -9 21 -4 35 11 36 13 1 -10 15 -51 32 -41 17 -75 39 -75 48 0 19 134 -32 179 -68 23 -19 26 -16 15 12 -12 34 7 48 32 23 17 -17 -46 -110 -66 -98 -9 6 -21 -1 -26 -15 -6 -18 -38 -9 -112 31 -63 35 -123 54 -157 49 l-55 -7 60 -16 c123 -31 146 -49 64 -51 -67 -1 -134 -36 -134 -70 0 -6 32 -11 71 -11 44 0 66 -8 59 -21 -7 -11 -27 -18 -44 -15 -17 4 -41 -12 -53 -34 -33 -58 -54 -68 -122 -59 l-61 9 66 -30 c36 -17 74 -26 84 -20 9 6 54 -4 99 -22 66 -26 87 -28 112 -7 16 13 36 19 43 12 7 -7 2 -13 -10 -13 -15 0 -19 -21 -11 -60 8 -38 4 -60 -10 -60 -21 0 -31 27 -25 65 3 19 -66 20 -85 2 -21 -22 -111 -26 -124 -6 -6 11 -21 19 -33 19 -14 0 -15 -8 0 -25 11 -14 21 -34 21 -45 1 -27 65 -39 81 -15 16 25 122 51 122 30 0 -22 -128 -89 -162 -84 -15 2 -49 -3 -74 -11 l-46 -15 46 -24 c25 -13 43 -37 38 -53 -4 -15 -7 -40 -8 -54 0 -16 -13 -21 -32 -12 -18 7 -43 13 -56 14 -13 0 -19 9 -13 18 6 10 30 12 54 6 43 -12 43 -12 3 21 -39 32 -39 33 10 20 38 -10 42 -8 19 7 -22 14 -60 11 -120 -8 -69 -21 -78 -28 -39 -30 28 -2 39 -8 25 -13 -14 -6 -20 -19 -14 -29 7 -11 5 -17 -5 -15 -19 5 -186 -41 -186 -52 0 -4 36 -2 79 3 50 7 110 -1 163 -22 82 -33 83 -33 72 8 -6 24 -2 39 9 36 24 -8 24 -14 7 -116 -15 -90 -29 -98 -65 -41 -14 23 -37 35 -54 29 -26 -10 -25 -18 3 -61 17 -27 23 -46 12 -43 -12 3 -38 -14 -58 -39 -40 -49 -140 -82 -116 -39 10 17 6 17 -13 -1 -15 -14 -45 -25 -67 -25 -38 0 -38 -1 3 -40 45 -42 154 -54 175 -20 29 48 85 21 83 -40 -2 -43 -11 -57 -31 -50 -23 9 -23 5 -2 -20 22 -26 20 -29 -10 -17 -27 10 -32 7 -20 -13 12 -20 7 -23 -20 -13 -29 12 -31 9 -12 -15 20 -24 16 -34 -22 -54 -29 -16 -37 -28 -20 -33 41 -14 -12 -65 -68 -65 -27 0 -46 -10 -43 -23 3 -12 -6 -25 -20 -28 -15 -3 -17 -1 -5 4 11 6 15 18 10 28 -15 24 66 64 94 47 13 -9 17 -5 8 9 -20 32 -115 6 -148 -40 -15 -21 -51 -37 -83 -37 -31 0 -67 -14 -81 -30 -29 -34 1 -41 34 -8 22 22 106 7 106 -18 0 -8 -37 -14 -81 -15 -49 -1 -89 -13 -100 -30 -30 -47 -22 -64 14 -29 19 19 45 27 65 18 17 -8 61 -18 97 -23 57 -8 95 -45 47 -45 -10 0 -34 -6 -54 -13 -22 -9 -30 -6 -21 8 21 33 -62 6 -91 -31 -22 -26 -21 -29 2 -15 19 12 24 10 14 -6 -10 -16 11 -19 77 -10 80 11 90 8 79 -21 -9 -23 -26 -29 -53 -20 -28 9 -36 5 -25 -12 11 -18 5 -19 -28 -1 -65 35 -97 2 -40 -41 41 -32 43 -37 12 -38 -20 0 -31 -9 -24 -20 7 -11 3 -20 -8 -20 -11 0 -16 -14 -9 -30 15 -39 -29 -92 -70 -85 -18 3 -32 -8 -33 -23 0 -31 -67 -61 -104 -47 -61 23 56 265 128 265 18 0 27 6 20 13 -8 7 2 25 21 39 44 32 16 65 -66 80 -71 13 -86 25 -52 46 32 20 86 122 65 122 -9 0 -25 -20 -36 -45 -17 -38 -21 -26 -26 70 -15 326 8 654 47 679 40 25 1 36 -63 17 -39 -11 -68 -11 -75 0 -9 16 41 28 92 23 6 -1 -7 39 -30 87 -23 49 -51 89 -64 89 -12 0 -28 14 -35 31 -6 17 -21 26 -32 19 -11 -7 -20 -4 -20 5 0 10 -22 30 -49 44 -27 15 -48 32 -47 39 1 7 -13 45 -31 86 -18 41 -33 95 -33 120 -1 48 -39 127 -40 81 0 -14 -8 -25 -17 -25 -10 0 -14 35 -9 78 10 84 -16 98 -80 45 -44 -36 -66 10 -26 55 18 19 25 43 17 53 -8 10 1 5 21 -10 28 -21 41 -22 60 -3 19 19 16 21 -11 11 -40 -15 -53 97 -15 121 12 7 16 21 10 30 -6 9 -2 23 10 30 11 7 20 -1 20 -18 0 -16 7 -34 17 -40 9 -5 15 26 13 70 -2 44 4 84 13 90 8 5 10 25 5 44 -10 31 -9 31 11 -1 13 -19 31 -35 41 -35 10 0 14 16 7 35 -6 19 8 8 31 -25 35 -51 42 -54 42 -20 1 30 5 33 18 13 11 -17 22 -20 30 -7 6 11 30 16 52 10 33 -9 38 -4 27 27 -7 20 -6 30 3 22 9 -8 35 6 59 30 106 111 123 120 159 85 42 -43 40 -63 -8 -76 -29 -7 -39 -26 -38 -67 2 -34 6 -43 12 -22 20 77 65 24 55 -65 -3 -27 -6 -66 -7 -86 -1 -20 -11 -31 -22 -24 -11 7 -20 2 -20 -10 0 -12 -8 -17 -19 -11 -10 7 -18 -4 -16 -24 1 -19 -5 -56 -14 -83 -12 -37 -9 -44 12 -31 16 9 20 8 11 -3 -9 -9 -31 -18 -49 -18 -17 0 -35 -11 -40 -25 -5 -14 2 -25 15 -25 12 0 16 10 8 23 -9 15 -5 18 10 8 13 -8 18 -32 11 -55 -10 -31 -7 -37 14 -25 22 14 22 10 -1 -18 -15 -19 -22 -40 -14 -47 7 -8 28 8 46 34 40 57 73 4 45 -73 -21 -55 0 -77 31 -34 20 28 23 24 21 -30 -9 -152 -12 -165 -32 -152 -12 7 -17 26 -10 42 16 44 -25 107 -70 107 -21 0 -39 9 -39 20 0 11 -18 20 -39 20 -53 0 -145 95 -132 137 5 18 -7 55 -28 83 -34 44 -38 45 -35 10 2 -22 18 -51 34 -64 26 -21 24 -25 -14 -25 -26 -1 -48 15 -56 39 -7 22 -20 40 -29 40 -9 0 -23 24 -30 52 -12 50 -14 51 -41 15 -37 -50 -19 -114 73 -253 42 -64 77 -126 77 -138 0 -12 14 -9 33 7 31 25 31 23 7 -23 -25 -49 -25 -50 15 -14 40 36 41 36 36 -30 -3 -36 -1 -51 3 -32 15 59 55 78 98 46 32 -25 33 -32 9 -48 -23 -16 -24 -33 -6 -95 13 -43 28 -103 35 -134 33 -160 207 -242 251 -118 10 30 28 71 39 90 11 19 20 66 20 105 0 52 9 71 35 72 29 2 29 4 -4 13 -36 9 -35 12 10 39 27 16 33 24 14 18 -19 -6 -35 -2 -35 9 0 10 11 19 25 19 17 1 15 7 -5 20 -16 11 -20 20 -8 20 28 0 28 66 0 85 -14 9 -10 15 11 15 39 0 60 69 39 127 -9 24 -12 57 -6 73 9 26 6 26 -25 1 -19 -16 -48 -31 -63 -33 -48 -7 -31 28 26 56 37 18 62 52 78 107 55 191 298 476 408 479 45 1 91 89 91 173 -1 51 5 89 12 85 8 -5 39 17 71 49 31 31 70 62 86 68 18 7 7 13 -26 13 -31 1 -51 -6 -45 -16 6 -9 -7 -22 -29 -28 -22 -6 -40 -2 -40 8 0 10 10 18 21 18 12 0 16 8 10 18 -25 41 154 42 197 1z m-2283 -113 c9 -5 10 -19 2 -30 -8 -13 -4 -16 10 -8 13 8 23 4 23 -8 0 -12 9 -17 20 -10 12 7 17 -6 13 -34 -4 -25 5 -72 21 -103 28 -55 27 -56 -15 -43 -32 10 -41 7 -35 -13 5 -15 27 -27 48 -27 21 0 36 -11 33 -25 -3 -13 20 -30 49 -38 50 -12 51 -15 15 -31 -28 -12 -21 -14 26 -7 36 6 65 2 65 -8 0 -10 16 -22 35 -27 19 -5 -17 -10 -80 -12 -89 -1 -124 7 -153 36 -21 21 -44 33 -50 27 -7 -6 -12 4 -12 23 0 19 -8 29 -18 23 -16 -10 -42 31 -40 63 4 53 -173 57 -312 8 -61 -22 -110 -31 -110 -20 0 10 9 18 20 18 11 0 18 8 15 17 -3 9 23 40 57 69 41 35 61 43 61 24 0 -16 -9 -23 -19 -16 -12 7 -14 2 -5 -12 11 -18 25 -15 56 12 23 20 35 25 27 11 -10 -18 6 -25 58 -25 40 0 67 8 61 19 -6 10 -3 24 7 30 11 6 26 1 34 -12 9 -15 5 -18 -12 -7 -17 11 -21 8 -12 -7 22 -35 46 -28 58 17 6 22 3 35 -6 30 -18 -11 -158 71 -159 94 -2 30 172 31 224 2z m861 -246 c-58 -103 -90 -130 -72 -60 6 22 18 40 26 40 9 0 25 27 37 60 12 33 31 60 43 60 12 0 -3 -45 -34 -100z m-117 41 c6 -10 -5 -23 -25 -30 -44 -14 -130 -158 -109 -181 8 -9 5 -10 -8 -3 -13 7 -27 6 -32 -2 -5 -8 -6 -4 -3 9 4 14 -3 30 -14 37 -27 17 17 69 58 69 17 0 26 5 19 11 -11 12 64 103 89 107 7 1 19 -6 25 -17z m1565 -184 c-17 -28 -38 -35 -74 -27 -33 7 -41 5 -23 -7 36 -24 32 -39 -21 -83 l-46 -39 44 0 c24 -1 49 -9 55 -20 7 -10 -13 -15 -44 -11 -30 4 -74 8 -98 9 -54 1 -42 71 18 104 42 22 163 153 168 180 6 45 12 43 28 -10 11 -38 9 -70 -7 -96z m-1789 -107 c-5 -28 -32 -68 -59 -89 -47 -37 -47 -40 -15 -90 38 -58 13 -111 -52 -111 -47 0 -68 35 -63 103 3 38 -7 58 -34 66 -78 25 -107 103 -35 96 39 -4 98 11 153 40 106 55 118 53 105 -15z m1709 -138 c60 -51 44 -65 -23 -21 -49 32 -51 32 -38 -1 11 -29 4 -33 -47 -21 -32 7 -83 4 -113 -8 -30 -11 -53 -12 -53 -2 0 10 17 24 38 30 21 7 43 26 50 42 15 41 129 29 186 -19z m1734 -202 c-5 -96 1 -150 14 -150 12 0 18 -11 13 -25 -4 -13 11 -40 33 -60 38 -32 39 -34 4 -22 -32 11 -37 6 -27 -30 6 -25 3 -38 -8 -31 -11 7 -13 -11 -4 -45 13 -54 12 -55 -21 -22 -19 19 -29 43 -23 53 6 11 3 25 -9 32 -11 7 -20 30 -20 52 0 22 -9 35 -20 28 -12 -7 -20 13 -20 47 0 33 -6 75 -13 95 -10 23 -6 30 10 20 14 -9 23 -2 23 17 0 17 10 31 23 31 14 0 18 24 11 69 -7 43 -2 72 12 78 13 6 25 11 26 11 1 1 -1 -65 -4 -148z m-3413 -35 c11 -14 27 -47 35 -75 l15 -50 -59 55 c-32 31 -65 49 -72 42 -8 -8 -14 -4 -14 8 0 19 28 39 63 43 6 1 21 -9 32 -23z m-19 -226 c52 -48 122 -103 157 -122 67 -36 126 -127 83 -127 -13 0 -6 -13 15 -29 22 -17 31 -30 21 -30 -10 -1 1 -18 25 -38 99 -86 47 -105 -59 -22 -43 35 -88 55 -101 47 -15 -9 -18 -5 -7 12 12 19 7 23 -16 14 -18 -7 -38 -4 -45 7 -6 10 -28 19 -48 19 -20 0 -42 14 -49 32 -18 47 -15 72 8 58 12 -7 15 -21 9 -31 -6 -11 8 -19 31 -19 24 0 61 -10 82 -21 70 -38 91 -7 23 35 -65 40 -70 73 -8 52 18 -7 -2 13 -46 43 -43 30 -95 76 -116 103 -21 27 -46 43 -56 37 -24 -15 -47 82 -26 115 12 20 18 17 23 -11 4 -20 49 -76 100 -124z m3204 -60 c0 -16 -13 -35 -30 -42 -23 -8 -25 -21 -8 -54 17 -36 14 -34 -20 7 -49 60 -52 80 -12 80 17 0 30 9 30 20 0 11 9 20 20 20 11 0 20 -14 20 -31z m-749 -125 c-36 -8 -39 -28 -10 -57 15 -15 13 -25 -10 -34 -19 -7 -31 -1 -31 18 0 16 -11 30 -25 31 -20 1 -20 3 0 11 14 6 20 19 14 29 -22 36 12 58 53 33 32 -20 33 -26 9 -31z m-2542 -134 c-3 -27 3 -50 14 -50 31 0 -4 -87 -47 -117 -29 -20 -33 -33 -16 -53 13 -15 23 -55 24 -88 2 -69 36 -64 36 5 0 60 49 128 68 96 23 -38 -7 -140 -51 -171 -38 -26 -37 -28 17 -42 31 -8 44 -19 30 -25 -17 -6 -3 -26 39 -57 l66 -49 -70 12 c-118 21 -133 28 -99 49 16 10 22 25 13 33 -8 9 -24 3 -34 -14 -13 -21 -7 -39 21 -62 37 -31 38 -35 5 -41 -32 -7 -31 -10 5 -30 64 -35 119 -39 120 -8 0 16 11 32 25 37 34 11 32 -64 -2 -92 -15 -13 -33 -16 -42 -8 -8 8 -12 -3 -8 -25 5 -28 -5 -42 -35 -46 -27 -4 -41 5 -41 25 0 17 8 31 19 31 11 0 -8 25 -41 55 -86 79 -107 126 -72 161 25 25 24 32 -7 58 -22 18 -25 24 -6 16 17 -7 13 1 -9 19 -21 17 -31 31 -23 31 9 0 3 21 -14 46 -48 74 -50 148 -4 185 33 27 34 30 5 21 -48 -15 -44 22 5 53 22 13 40 31 40 40 0 30 -43 14 -93 -36 -28 -28 -56 -47 -61 -41 -22 22 97 116 135 106 21 -6 44 -2 50 8 22 35 43 17 38 -32z m2944 -208 c-2 -43 -10 -74 -18 -69 -8 5 -15 1 -15 -10 0 -11 8 -23 17 -26 10 -4 1 -24 -20 -45 -33 -34 -37 -35 -37 -5 0 18 -13 33 -28 33 -19 0 -25 14 -17 42 8 31 15 35 27 15 10 -15 18 -20 18 -11 0 8 -15 40 -34 70 -18 30 -22 44 -8 31 20 -18 35 -14 64 15 52 52 54 49 51 -40z m-162 9 c40 -39 38 -99 -3 -83 -17 7 -40 12 -50 12 -21 0 -25 67 -5 87 19 19 26 17 58 -16z m-2325 -40 c21 -16 28 -32 17 -39 -11 -7 -26 -4 -33 8 -31 50 -45 13 -19 -50 16 -38 23 -70 14 -70 -8 0 -4 -8 9 -16 17 -10 20 -35 9 -74 l-15 -58 -34 49 c-19 26 -34 40 -34 30 0 -10 15 -34 33 -54 18 -21 24 -37 13 -37 -12 0 -14 -35 -5 -95 17 -108 9 -135 -30 -100 -15 14 -23 32 -18 40 16 26 -61 255 -85 255 -33 0 -50 54 -36 117 9 43 7 47 -12 23 -20 -26 -22 -25 -12 7 7 20 13 47 13 60 1 12 10 3 20 -22 11 -28 28 -40 48 -33 18 7 36 -2 44 -22 10 -26 16 -28 29 -7 25 40 22 62 -7 44 -20 -12 -20 -8 0 16 13 17 19 37 11 44 -25 25 44 12 80 -16z m2631 -318 c13 -15 17 -33 9 -40 -7 -7 5 -14 26 -14 36 -2 36 -3 -2 -19 -34 -15 -35 -17 -5 -19 43 -1 44 -21 5 -72 -25 -34 -32 -35 -49 -9 -32 47 -23 74 10 31 22 -29 29 -31 29 -9 0 17 -18 49 -39 73 -28 30 -33 45 -15 52 13 5 8 11 -12 11 -20 1 -31 11 -24 22 17 27 41 25 67 -7z m-2624 -88 c2 -80 0 -86 -13 -35 -21 82 -23 130 -5 130 8 0 16 -43 18 -95z m3413 -153 c4 -12 -4 -49 -18 -82 -21 -48 -27 -52 -30 -20 -2 22 -5 59 -8 82 -4 42 42 59 56 20z m-2750 -331 c58 -78 62 -111 14 -111 -28 -1 -40 -14 -39 -44 1 -24 -5 -39 -15 -34 -9 6 -16 22 -16 37 0 14 -13 37 -29 50 -29 25 -20 80 18 106 14 9 12 14 -5 15 -15 0 -21 9 -14 20 20 32 40 24 86 -39z m-971 -32 c6 -7 -1 -36 -17 -65 -15 -30 -28 -67 -28 -84 -1 -23 -4 -24 -17 -4 -23 36 -66 -17 -70 -86 -2 -33 -12 -47 -30 -40 -14 5 -35 10 -46 10 -11 0 -6 14 12 31 17 18 31 45 31 61 0 81 126 216 165 177z m-153 -61 c-5 -30 -46 -67 -77 -68 -8 0 -4 23 9 50 25 55 75 69 68 18z m3884 -13 c8 -41 -30 -84 -92 -104 -42 -13 -70 96 -34 133 26 25 120 4 126 -29z m-2868 -7 c51 -20 37 -72 -47 -168 -88 -100 -97 -99 -104 5 -7 106 73 193 151 163z"/> <path d="M4500 2861 c0 -22 9 -41 19 -41 11 0 14 16 7 35 -12 31 -9 32 21 7 28 -23 77 -18 51 6 -39 35 -98 31 -98 -7z"/> <path d="M2050 2920 c-10 -16 -8 -21 5 -13 12 7 24 -13 29 -48 6 -41 -1 -67 -22 -79 -22 -13 -24 -19 -6 -19 15 -1 22 -8 17 -17 -6 -9 -1 -29 10 -45 17 -24 19 -23 10 6 -7 19 -4 35 6 35 9 0 20 35 24 79 4 43 4 75 -1 70 -4 -5 -19 6 -32 24 -19 26 -27 28 -40 7z"/> <path d="M2913 2459 c-78 -61 -65 -90 18 -41 39 23 88 42 109 42 21 0 43 9 50 20 24 38 -124 21 -177 -21z"/> <path d="M2780 2080 c-27 -9 -36 -17 -20 -18 27 -2 27 -5 0 -22 -58 -37 0 -20 65 20 66 40 46 49 -45 20z"/> <path d="M2657 1767 c-23 -7 -38 -41 -48 -113 -7 -57 -40 -155 -71 -218 -70 -139 -70 -141 -9 -113 26 12 59 50 73 85 13 34 41 76 62 93 38 31 31 111 -8 87 -11 -7 -4 17 14 53 20 38 40 56 48 43 21 -35 182 -65 182 -34 0 14 16 32 35 41 30 12 28 16 -15 29 -27 7 -61 5 -75 -6 -14 -10 -25 -12 -25 -4 0 8 -15 3 -34 -13 -18 -15 -28 -17 -21 -5 9 14 -9 20 -49 18 l-63 -4 46 37 c43 35 30 43 -42 24z"/> <path d="M2576 1306 c-45 -7 -125 -66 -89 -66 7 0 3 -25 -9 -55 l-20 -55 48 50 c31 32 40 55 27 64 -14 8 -7 19 18 27 62 20 121 46 99 45 -11 -1 -44 -6 -74 -10z"/> <path d="M3549 4425 c3 -19 17 -35 33 -35 15 0 34 -8 41 -17 6 -10 18 -8 25 4 7 12 -13 35 -46 52 -54 28 -58 27 -53 -4z"/> <path d="M3165 4394 c3 -15 -23 -24 -75 -24 -55 0 -78 -8 -75 -26 4 -19 -4 -21 -32 -5 -30 15 -50 10 -93 -27 -40 -35 -47 -50 -27 -59 15 -6 0 -7 -33 -1 -46 9 -53 6 -30 -10 25 -18 23 -21 -13 -22 -23 0 -57 -22 -75 -50 -27 -42 -28 -50 -4 -50 16 0 45 -5 65 -12 35 -11 35 -10 2 17 -32 27 -31 29 20 31 116 5 146 13 137 37 -7 16 2 21 22 13 23 -9 28 -5 17 13 -12 19 -7 20 23 4 30 -16 50 -14 82 8 30 22 45 23 56 6 9 -14 5 -18 -9 -9 -13 8 -23 5 -23 -6 0 -11 18 -18 40 -17 46 4 50 17 17 50 -18 18 -16 27 10 36 18 7 28 21 22 31 -7 11 -26 10 -47 -1 -25 -13 -35 -12 -35 5 0 42 89 31 133 -16 l42 -45 -64 7 c-63 8 -63 7 -28 -32 40 -44 81 -55 57 -15 -8 15 1 12 23 -5 22 -17 31 -20 23 -5 -19 30 -3 32 48 4 28 -15 39 -14 39 3 0 17 8 16 30 -2 16 -13 42 -20 57 -14 16 6 38 1 50 -11 27 -27 83 -38 83 -15 0 27 -79 112 -79 85 -1 -35 -41 -31 -88 10 -29 25 -35 27 -23 5 9 -16 -5 -10 -32 14 -26 24 -57 46 -68 50 -11 3 -18 12 -15 20 2 7 -19 9 -47 4 -29 -5 -46 -1 -40 9 7 10 -2 24 -18 30 -17 7 -28 1 -25 -13z"/> <path d="M3577 4326 c32 -60 64 -76 85 -44 27 43 21 63 -15 50 -17 -7 -46 -1 -63 13 -27 22 -28 20 -7 -19z"/> <path d="M3602 4234 c-3 -31 40 -95 57 -85 9 6 22 -4 29 -22 7 -18 19 -27 26 -20 7 7 24 3 39 -10 17 -13 27 -14 27 -2 0 11 -13 31 -30 45 -16 14 -30 17 -30 8 0 -9 -14 3 -31 28 -18 25 -39 40 -49 34 -9 -6 -21 1 -27 15 -5 14 -11 18 -11 9z"/> <path d="M4081 3989 c13 -16 30 -24 39 -19 9 5 26 -4 40 -20 17 -21 34 -24 59 -10 20 10 41 13 48 6 7 -7 13 -2 13 10 0 12 -20 33 -45 47 -41 21 -42 20 -18 -10 24 -29 23 -33 -13 -33 -23 0 -47 8 -53 18 -5 9 -29 22 -52 28 -34 9 -37 6 -18 -17z"/> <path d="M2380 3622 c0 -13 -10 -18 -22 -11 -16 10 -16 3 0 -27 12 -23 22 -67 23 -98 0 -44 4 -49 19 -24 10 18 15 62 11 97 -9 64 -31 111 -31 63z"/> <path d="M1260 2809 c-39 -102 -24 -292 29 -379 35 -55 50 -110 50 -177 1 -102 43 -214 97 -257 18 -14 11 4 -15 42 -32 45 -52 109 -61 200 -8 72 -34 170 -57 216 -56 110 -57 389 -1 355 10 -6 12 3 6 20 -17 43 -26 39 -48 -20z"/> <path d="M5072 994 c15 -43 28 -95 28 -114 0 -30 69 -60 140 -60 40 0 33 163 -10 215 -11 15 -68 -21 -59 -37 6 -10 3 -18 -7 -18 -24 0 -87 71 -74 83 5 6 -3 10 -18 10 -24 0 -24 -11 0 -79z m152 -54 c-12 -31 -22 -39 -32 -23 -20 33 7 112 31 88 11 -11 11 -37 1 -65z"/> </g> </svg> 